<svg width="18" height="17" fill="none" xmlns="http://www.w3.org/2000/svg"><path d="M15.735 13.171v2.294a1.525 1.525 0 01-1.042 1.454 1.534 1.534 0 01-.628.075 15.177 15.177 0 01-6.61-2.347 14.923 14.923 0 01-4.597-4.587A15.111 15.111 0 01.507 3.43a1.526 1.526 0 01.906-1.536 1.53 1.53 0 01.618-.13h2.298A1.534 1.534 0 015.861 3.08a9.8 9.8 0 00.536 2.148 1.526 1.526 0 01-.345 1.613l-.972.97A12.244 12.244 0 009.676 12.4l.972-.97a1.532 1.532 0 011.617-.345 9.845 9.845 0 002.152.535 1.533 1.533 0 011.318 1.552z" fill="#E2001A"/><path d="M10.411 4.058a3.832 3.832 0 013.026 3.02M10.41 1a6.9 6.9 0 014.11 1.97 6.875 6.875 0 011.98 4.1" stroke="#E2001A" stroke-width="2" stroke-linecap="round" stroke-linejoin="round"/></svg>