<svg width="50" height="41" fill="none" xmlns="http://www.w3.org/2000/svg"><g clip-path="url(#clip0_12_665)"><path d="M5.817 34.484c-1.168 0-1.954.917-1.954 2.095 0 1.179.786 2.095 1.954 2.095 1.167 0 1.953-.916 1.953-2.095-.011-1.178-.797-2.095-1.953-2.095zm-.262-1.298c.938 0 1.724.48 2.095 1.004v-.873h1.44v6.536H7.977a.328.328 0 01-.327-.328v-.545c-.371.524-1.146 1.004-2.095 1.004-1.79 0-3.154-1.528-3.154-3.394s1.353-3.404 3.154-3.404zm5.172.13h1.44v.884c.393-.654 1.135-1.014 1.986-1.014 1.517 0 2.5 1.069 2.5 2.728v3.939H15.55a.328.328 0 01-.327-.328v-3.371c0-1.037-.524-1.659-1.364-1.659-.95 0-1.691.742-1.691 2.139v3.219h-1.103a.328.328 0 01-.327-.328l-.01-6.209zm10.465 1.168c-1.168 0-1.954.917-1.954 2.095 0 1.179.786 2.095 1.954 2.095 1.167 0 1.953-.916 1.953-2.095 0-1.178-.786-2.095-1.953-2.095zm-.262-1.298c.938 0 1.724.48 2.095 1.004v-4.147h1.44v9.81h-1.102a.328.328 0 01-.327-.328v-.545c-.371.524-1.146 1.004-2.095 1.004-1.79 0-3.154-1.528-3.154-3.394s1.353-3.404 3.143-3.404zm5.172.13h1.44v1.168a1.852 1.852 0 011.725-1.233 2.41 2.41 0 01.556.055v1.473a2.318 2.318 0 00-.72-.12c-.819 0-1.572.698-1.572 1.997v3.186H26.43a.328.328 0 01-.327-.328v-6.198zm7.595 5.326c1.146 0 1.964-.906 1.964-2.063 0-1.167-.808-2.062-1.964-2.062-1.168 0-1.975.905-1.975 2.062.01 1.168.807 2.063 1.975 2.063zm0 1.342a3.4 3.4 0 113.426-3.394 3.378 3.378 0 01-3.426 3.394zm4.594-6.668h1.44v6.537H38.63a.328.328 0 01-.327-.328l-.011-6.209zm.72-1.429a.98.98 0 01-.971-.971.97.97 0 011.65-.668.96.96 0 01-.679 1.64zm5.314 2.597c-1.168 0-1.953.917-1.953 2.095 0 1.179.785 2.095 1.953 2.095 1.168 0 1.953-.916 1.953-2.095-.021-1.178-.785-2.095-1.953-2.095zm-.262-1.298c.939 0 1.724.48 2.095 1.004v-4.147h1.44v9.81h-1.101a.328.328 0 01-.328-.328v-.545c-.37.524-1.145 1.004-2.095 1.004-1.79 0-3.153-1.528-3.153-3.394s1.353-3.404 3.142-3.404z" fill="#000"/><path d="M36.076 8.11l3.764-6.515A.782.782 0 0038.487.81L34.68 7.4a23.578 23.578 0 00-19.336 0L11.535.81a.783.783 0 00-1.354.785l3.765 6.515c-6.493 3.514-10.9 10.05-11.545 17.765h45.176c-.644-7.715-5.063-14.252-11.501-17.765zM14.6 19.436a1.877 1.877 0 110-3.754 1.877 1.877 0 010 3.754zm20.798 0a1.877 1.877 0 110-3.753 1.877 1.877 0 010 3.753z" fill="#3DDC84"/></g><defs><clipPath id="clip0_12_665"><path fill="#fff" transform="translate(.309 .318)" d="M0 0h49.383v40H0z"/></clipPath></defs></svg>