<svg width="33" height="41" fill="none" xmlns="http://www.w3.org/2000/svg"><path d="M27.203 21.543c.056 6.053 5.31 8.068 5.369 8.094-.045.142-.84 2.87-2.768 5.689-1.668 2.436-3.398 4.864-6.124 4.914-2.678.05-3.54-1.588-6.601-1.588-3.062 0-4.018 1.538-6.554 1.638-2.63.1-4.634-2.635-6.315-5.063-3.435-4.966-6.06-14.033-2.536-20.153 1.751-3.04 4.88-4.964 8.277-5.014 2.584-.049 5.022 1.738 6.602 1.738 1.578 0 4.542-2.15 7.657-1.833 1.304.054 4.965.526 7.316 3.967-.19.118-4.368 2.55-4.323 7.611zM22.17 6.68c1.396-1.69 2.337-4.045 2.08-6.387-2.013.081-4.448 1.342-5.892 3.032-1.294 1.497-2.428 3.892-2.122 6.187 2.244.174 4.537-1.14 5.934-2.832z" fill="#000"/></svg>