<svg width="203" height="70" fill="none" xmlns="http://www.w3.org/2000/svg"><path d="M24.54 25.478h12.49v7.603H24.54v-7.603z" fill="#F8AF78"/><path fill-rule="evenodd" clip-rule="evenodd" d="M36.535 25.97H25.034v6.62h11.501v-6.62zm-11.995-.492v7.603h12.49v-7.603H24.54z" fill="#000"/><path d="M30.75 31.913c4.154 0 6.09-1.83 6.538-2.744 6.71 0 13.94 4.438 17.897 13.073 1.413 3.38 1.687 7.324 1.992 12.113L56.03 55.98l-10.559.402c.115-1.043.39-3.319.574-4.081.184-.763.118-.79.705-1.018-.23-.636-.586-2.516-.922-3.218-.422-.877-.748-2.052-1.935-3.043-.95-.794-1.238-.916-1.263-.877l-.23.457-1.34 14.933-3.647.749-6.663.534-8.887-.534-3.244-.673-.793-14.81v-.793l-2.148 4.306-.968 1.394c.348.885.61 2.024.163 2.76-.447.735-.518.926-.83.948-.25.017-2.62 1.512-3.197 2.571l-.57 1.136-4.327-2.277c-.7-1.766-1.104-3.483-1.252-5.138-.33-.746-.937-2.392-.73-3.012.208-.62 1.408-1.189 1.982-1.395l1.182-3.1 3.163-5.219 3.405-4.03c3.24-2.138 6.968-3.477 10.512-3.784.449.914 2.384 2.744 6.539 2.744z" fill="#fff"/><path fill-rule="evenodd" clip-rule="evenodd" d="M42.815 44.111l-1.599 15.567-.49-.05 1.599-15.567.49.05zm-24.813.64l.593 14.565-.492.02-.593-14.565.492-.02z" fill="#000"/><path fill-rule="evenodd" clip-rule="evenodd" d="M23.9 60.56l-12.733-2.12.08-.484 12.734 2.12c4.921.82 9.952.734 14.843-.252l9.261-1.867.098.482-9.261 1.867a41.516 41.516 0 01-15.022.255zm22.25-28.35c-2.761-1.627-5.802-2.42-9.349-3.03l.084-.484c3.566.612 6.678 1.418 9.516 3.091 2.841 1.674 5.39 4.206 7.856 8.242 1.455 2.381 2.416 5.587 2.85 8.497.218 1.457.304 2.848.253 4.033-.052 1.177-.24 2.18-.595 2.84l-.1.186-10.098-3.581-.031-.13c-.135-.564-.225-1.095-.31-1.595-.026-.15-.05-.299-.077-.444-.111-.63-.235-1.215-.458-1.79-.43-1.112-1.24-2.228-3.125-3.545l-1.042.755-.29-.397 1.082-.785v-.992h.494v.989c1.97 1.37 2.865 2.565 3.342 3.798.24.621.37 1.243.483 1.881l.08.458c.077.457.157.925.27 1.423l9.437 3.347c.247-.567.4-1.406.445-2.439.05-1.147-.034-2.506-.248-3.94-.428-2.87-1.374-6.006-2.783-8.313-2.433-3.983-4.929-6.45-7.686-8.075z" fill="#000"/><path d="M57.54 57.092c-.859 2.145-4.228 2.822-7.526 1.512s-5.276-4.111-4.417-6.256c.858-2.145 4.227-2.822 7.525-1.512s5.276 4.111 4.417 6.256z" fill="#fff"/><path fill-rule="evenodd" clip-rule="evenodd" d="M54.594 58.662c1.26-.254 2.14-.884 2.487-1.752s.145-1.928-.595-2.976c-.737-1.044-1.973-2.017-3.546-2.641-1.573-.625-3.143-.767-4.398-.515-1.26.253-2.14.884-2.487 1.752-.347.867-.145 1.928.595 2.976.737 1.043 1.974 2.016 3.547 2.641 1.573.625 3.142.767 4.397.515zm-4.58-.058c3.298 1.31 6.667.633 7.525-1.512.859-2.145-1.119-4.946-4.417-6.256-3.298-1.31-6.667-.633-7.525 1.512-.859 2.145 1.119 4.946 4.417 6.256zm-35.118-26.99c2.375-1.653 5.252-2.427 9.721-3.039l.067.487c-4.452.61-7.231 1.372-9.506 2.955-2.279 1.586-4.078 4.013-6.527 8.021-1.42 2.326-2.56 4.97-3.182 7.33-.31 1.18-.49 2.282-.512 3.233-.02.863.088 1.584.33 2.126l8.847-2.204a1.078 1.078 0 01-.035-.284c.003-.186.057-.354.142-.514.133-.25.363-.508.625-.805l.162-.183c.668-.764 1.628-1.957 2.486-4.333v-1.076h.494v.993l1.083.785-.29.397-.921-.666c-.86 2.273-1.809 3.456-2.48 4.223l-.177.2c-.262.298-.443.502-.546.696a.625.625 0 00-.085.29c-.001.092.022.2.09.343l.13.271-9.786 2.438-.091-.169c-.356-.663-.495-1.542-.472-2.54.024-1 .211-2.142.529-3.346.634-2.41 1.794-5.098 3.238-7.46 2.45-4.01 4.294-6.519 6.666-8.169z" fill="#000"/><path d="M5.955 53.573l4.933 4.915a1.956 1.956 0 002.759 0 1.94 1.94 0 000-2.75l-4.932-4.914-2.76 2.75z" fill="#E2001A"/><path fill-rule="evenodd" clip-rule="evenodd" d="M8.714 50.477l5.107 5.088a2.184 2.184 0 010 3.097 2.203 2.203 0 01-3.108 0l-5.107-5.089 3.108-3.096zm-2.41 3.096l4.758 4.741a1.709 1.709 0 002.41 0 1.694 1.694 0 000-2.401l-4.758-4.741-2.41 2.401z" fill="#000"/><path d="M20.11 63.45l1.108 1.656a.144.144 0 01-.095.212.093.093 0 01-.044-.003l-.485-.13a.064.064 0 00-.026-.003.145.145 0 00-.121.119.063.063 0 000 .023l.11.528a.093.093 0 01.002.04.144.144 0 01-.212.093l-1.67-1.108a.14.14 0 01-.055-.06l-.747-1.365a.14.14 0 00-.027-.038l-4.644-4.627a.558.558 0 010-.79.563.563 0 01.794 0l4.644 4.626c.01.011.023.02.037.027l1.372.744a.14.14 0 01.06.055z" fill="#fff"/><path fill-rule="evenodd" clip-rule="evenodd" d="M13.03 57.822a.81.81 0 011.143 0l4.632 4.616 1.36.738a.394.394 0 01.154.141l1.108 1.659.004.006a.39.39 0 01-.258.577.34.34 0 01-.158-.007l-.284-.076.068.326a.337.337 0 010 .143.391.391 0 01-.577.252l-.006-.004-1.671-1.108a.386.386 0 01-.142-.154l-.74-1.355-4.633-4.615a.803.803 0 010-1.139zm7.5 7.6zm-6.707-7.252a.315.315 0 00-.444 0 .313.313 0 000 .443l4.644 4.627a.386.386 0 01.07.097l.736 1.345 1.43.95-.053-.258a.308.308 0 01-.003-.115.391.391 0 01.329-.32.311.311 0 01.127.008l.19.051-.934-1.398-1.35-.732a.385.385 0 01-.098-.071l-4.643-4.627z" fill="#000"/><path d="M3.276 47.22c-.934 2.112.943 4.982 4.192 6.407 3.25 1.426 6.64.87 7.575-1.244.934-2.114-.943-4.983-4.192-6.409-3.25-1.426-6.64-.868-7.575 1.245z" fill="#fff"/><path fill-rule="evenodd" clip-rule="evenodd" d="M4.217 50.413c-.702-1.074-.867-2.14-.489-2.996.378-.855 1.28-1.454 2.548-1.662 1.263-.208 2.826-.01 4.376.67 1.55.68 2.751 1.695 3.45 2.764.702 1.073.867 2.14.49 2.995-.379.855-1.28 1.455-2.549 1.663-1.263.208-2.826.01-4.376-.67-1.55-.68-2.751-1.696-3.45-2.764zm3.251 3.214c-3.25-1.425-5.126-4.295-4.192-6.408.935-2.113 4.326-2.67 7.575-1.245 3.25 1.426 5.126 4.295 4.192 6.409-.934 2.113-4.326 2.67-7.575 1.244z" fill="#000"/><path d="M4.49 47.496l1.894 1.886-2.698 2.69-1.894-1.886a1.897 1.897 0 01-.001-2.689 1.913 1.913 0 012.698-.001z" fill="#E2001A"/><path fill-rule="evenodd" clip-rule="evenodd" d="M3.686 52.42l-2.069-2.06a2.142 2.142 0 010-3.036 2.16 2.16 0 013.047-.002l2.069 2.06-3.047 3.038zm2.349-3.038l-1.72-1.712a1.666 1.666 0 00-2.35.001 1.651 1.651 0 00.001 2.342l1.72 1.712 2.349-2.343z" fill="#000"/><path d="M3.478 49.192l-1.23 3.556c-.403.97-.226 1.563.44 1.983.664.42 1.351-.288 1.698-.834-.305.481-.668 1.512-.098 1.998.167.142.374.24.588.288.534.122 1.207-.143 1.495-.596-.347.546-.78 1.252 0 1.739.69.542 1.637.058 1.984-.487l-1.53 3.023c-.34.641-.32 1.218.15 1.515.392.248.936.21 1.38-.31l3.474-4.48 1.538-2.288a3.271 3.271 0 00-1.149-4.696l-4.045-2.216a3.294 3.294 0 00-4.695 1.805z" fill="#F8AF78"/><path fill-rule="evenodd" clip-rule="evenodd" d="M8.055 47.603a3.047 3.047 0 00-4.343 1.669l-1.233 3.564-.003.007c-.192.46-.229.794-.169 1.045.058.243.217.449.512.635.21.132.421.11.65-.02.238-.138.464-.381.636-.628.025-.035.048-.07.07-.105l.953-1.654a.247.247 0 01.336-.091c.119.067.16.218.092.335L4.6 54.02l-.005.01a3.46 3.46 0 01-.077.115c-.13.235-.251.556-.282.86-.032.31.033.552.211.703.135.114.305.195.484.236.21.048.46.021.693-.071.233-.093.427-.243.537-.416l1.035-1.688a.247.247 0 01.339-.081c.116.07.153.222.082.338L6.58 55.715l-.002.003-.014.022c-.17.27-.334.57-.375.846a.639.639 0 00.033.349.665.665 0 00.279.3l.011.007.01.008c.254.2.561.2.875.072.317-.131.6-.383.747-.613l.838-1.374a.247.247 0 01.339-.083c.116.07.153.222.083.338l-.84 1.376v.002l-.002.002a1.564 1.564 0 01-.017.027l.004.002-1.505 2.976-.001.002c-.157.296-.218.553-.202.752a.54.54 0 00.264.44c.148.093.32.13.495.1.175-.032.372-.136.562-.357l3.466-4.469 1.533-2.28a3.026 3.026 0 00-1.063-4.345l-4.044-2.215zm-.446 10.163a1.992 1.992 0 01-.023.01c-.416.171-.922.203-1.357-.131a1.148 1.148 0 01-.461-.52 1.126 1.126 0 01-.066-.612c.008-.052.019-.105.032-.156-.29.101-.614.134-.913.066a1.647 1.647 0 01-.693-.34c-.354-.3-.423-.74-.383-1.128l.005-.047a1.663 1.663 0 01-.034.02c-.336.193-.752.268-1.16.01-.371-.233-.633-.534-.73-.936-.093-.39-.018-.835.192-1.34l1.227-3.55c.715-2.066 3.125-2.993 5.047-1.94l4.045 2.216a3.517 3.517 0 011.235 5.048L12.03 56.73l-3.484 4.491-.003.005c-.253.296-.548.47-.853.525a1.183 1.183 0 01-.848-.167 1.031 1.031 0 01-.492-.817c-.025-.323.074-.674.257-1.019l1.002-1.983z" fill="#000"/><path d="M45.546 57.627l-1.525 2.7a2.178 2.178 0 01-2.1 1.094.722.722 0 01-.584-1.035l1.896-3.886c.187-.385.477-.714.753-1.042.94-1.12 2.21-3.398 5.997-2.975 2.85.318 6.54 3.239 5.125 7.05-1.132 3.049-3.321 3.418-4.274 3.221-.842.683-1.847.9-2.384.913l-1.778 3.02a.91.91 0 01-1.377.227.926.926 0 01-.219-1.111c1.565-3.188 3.155-8.072 2.268-8.442-.949-.397-1.453-.064-1.798.266z" fill="#F8AF78"/><path fill-rule="evenodd" clip-rule="evenodd" d="M45.772 53.193c.96-.694 2.286-1.173 4.239-.955 1.487.166 3.178 1.006 4.32 2.297 1.15 1.301 1.754 3.077 1.009 5.083-1.134 3.052-3.324 3.565-4.44 3.397-.83.638-1.734.865-2.307.894l-1.708 2.903a1.157 1.157 0 01-1.751.288 1.172 1.172 0 01-.28-1.405 34.732 34.732 0 002.038-5.238c.24-.827.4-1.554.446-2.09a2.18 2.18 0 00-.014-.616.428.428 0 00-.05-.137c-.014-.022-.024-.026-.025-.027-.436-.182-.743-.186-.968-.128a1.245 1.245 0 00-.538.321l-1.507 2.667a2.425 2.425 0 01-2.337 1.219.968.968 0 01-.784-1.387l1.896-3.887c.186-.382.465-.712.716-1.01l.07-.082c.096-.115.2-.246.31-.39.407-.518.927-1.183 1.665-1.717zm3.101 10.192c.5-.082 1.18-.315 1.805-.822.4-.325.78-.763 1.073-1.349a.248.248 0 01.331-.11c.122.06.172.208.11.33a4.65 4.65 0 01-.775 1.115c.988-.048 2.559-.675 3.46-3.102.67-1.804.137-3.394-.917-4.587-1.062-1.2-2.64-1.98-4.004-2.133-1.834-.205-3.037.244-3.894.864-.675.488-1.138 1.078-1.54 1.592a16.366 16.366 0 01-.411.509c-.26.307-.498.59-.656.915l-1.896 3.886c-.146.3.053.652.386.683a1.93 1.93 0 001.86-.97l1.544-2.73.026-.026c.185-.177.434-.376.781-.466.351-.092.77-.065 1.283.15.222.093.323.309.367.513.046.21.049.472.024.762-.051.583-.22 1.346-.464 2.184-.486 1.68-1.28 3.711-2.068 5.317a.681.681 0 00.159.818c.312.27.793.19 1.002-.165l1.775-3.015 1.874-3.632a.247.247 0 01.332-.106c.121.062.169.21.107.33l-1.674 3.245zM23.61 29.284c.127-.174.24-.328.33-.462l.45.169c-.085.632.217 1.256.81 1.93.575.652 1.38 1.305 2.252 2.012l.084.069c.896.726 1.847 1.505 2.628 2.37.782.866 1.409 1.834 1.636 2.947.126.613.198 1.888.234 3.54.035 1.662.033 3.729.002 5.94-.06 4.423-.233 9.433-.44 12.957l-.492-.028c.206-3.516.379-8.519.439-12.936.03-2.208.033-4.268-.003-5.922-.035-1.663-.108-2.892-.223-3.453-.204-.993-.769-1.884-1.52-2.716-.751-.832-1.673-1.588-2.573-2.318l-.101-.083c-.857-.694-1.691-1.371-2.293-2.055-.435-.494-.77-1.014-.894-1.57-.602.825-1.392 1.937-1.603 3.32-.252 1.655.33 3.754 3.377 6.185l1.879-3.839.413 3.68c.724.27 1.406 1.04 1.925 2.474.561 1.55.953 3.925.995 7.448.016 1.3-.02 3.675-.057 6.01l-.01.644c-.034 2.108-.066 4.098-.06 5.144l-.493.002c-.006-1.051.026-3.047.06-5.151l.01-.647c.037-2.338.072-4.705.057-5.996-.042-3.498-.431-5.811-.966-7.287-.536-1.482-1.199-2.069-1.754-2.22l-.161-.043-.26-2.32-1.401 2.862-.24-.185c-3.346-2.58-4.096-4.907-3.802-6.834.237-1.556 1.16-2.813 1.764-3.638z" fill="#000"/><path fill-rule="evenodd" clip-rule="evenodd" d="M37.996 29.483a13.12 13.12 0 01-.369-.511l-.452.136c0 .506-.249 1.01-.7 1.546-.45.535-1.076 1.072-1.782 1.644l-.535.43c-1.275 1.019-2.692 2.152-3.593 3.514l.412.27c.854-1.291 2.204-2.371 3.486-3.397.182-.146.363-.29.541-.435.706-.572 1.366-1.136 1.85-1.71.328-.39.586-.799.718-1.231l.032.043.129.173c.194.263.402.552.6.868.398.633.752 1.367.876 2.195.24 1.588-.351 3.627-3.402 6.057l-1.879-3.839-.413 3.68c-.712.262-1.458.995-1.977 2.382l.462.172c.526-1.405 1.255-1.982 1.808-2.132l.161-.044.26-2.32 1.401 2.862.24-.185c3.342-2.577 4.109-4.839 3.827-6.706-.138-.92-.529-1.719-.945-2.382a14.35 14.35 0 00-.622-.9l-.134-.18z" fill="#000"/><path d="M40.243 15.204c.084-1.005-.848-1.047-1.324-.942-.33 1.787-.866 5.358-.378 5.341.61-.02 1.156-.188 1.26-1.424.106-1.236.337-1.718.442-2.975z" fill="#F8AF78"/><path fill-rule="evenodd" clip-rule="evenodd" d="M39.89 14.091c-.348-.152-.76-.128-1.024-.07l-.16.035-.03.16a46.689 46.689 0 00-.498 3.368c-.057.56-.09 1.074-.077 1.452.007.185.025.357.067.49.02.064.053.14.108.202.062.07.155.125.273.12.318-.01.681-.06.975-.317.294-.26.469-.685.524-1.332.05-.6.132-1.017.215-1.445l.002-.008c.084-.434.17-.88.224-1.522.025-.289-.023-.533-.136-.729a.97.97 0 00-.462-.404zm.035.65c.053.09.09.229.073.443a12.37 12.37 0 01-.217 1.468l-.003.011c-.083.43-.169.868-.222 1.495-.05.59-.201.865-.359 1.004-.14.123-.323.173-.566.19a1.705 1.705 0 01-.037-.334c-.012-.343.018-.83.075-1.384a45.59 45.59 0 01.462-3.158c.185-.02.396-.007.562.065.102.045.18.11.232.2z" fill="#000"/><path d="M20.824 15.254c-.084-1.006.848-1.048 1.325-.943.329 1.788.866 5.358.378 5.342-.61-.021-1.156-.189-1.261-1.425-.105-1.236-.337-1.717-.442-2.974z" fill="#F8AF78"/><path fill-rule="evenodd" clip-rule="evenodd" d="M21.178 14.14c.348-.152.76-.128 1.024-.07l.16.036.03.16a46.7 46.7 0 01.498 3.367c.058.56.09 1.074.077 1.452a1.945 1.945 0 01-.067.49.555.555 0 01-.108.203.346.346 0 01-.273.12c-.317-.011-.681-.06-.975-.318-.294-.26-.469-.685-.524-1.331-.05-.6-.132-1.018-.215-1.446l-.002-.008a13.02 13.02 0 01-.224-1.521c-.024-.29.023-.533.136-.73a.97.97 0 01.463-.404zm-.035.65c-.053.09-.09.23-.072.443.051.614.133 1.038.217 1.469l.002.01c.083.43.169.869.222 1.495.05.59.201.866.36 1.004.14.124.323.174.565.19.017-.07.031-.18.037-.334.012-.343-.018-.83-.075-1.384a45.65 45.65 0 00-.461-3.158 1.162 1.162 0 00-.562.066.477.477 0 00-.233.199z" fill="#000"/><path d="M22.526 3.71c-1.01 2.996-1.01 6.682-.862 8.882.504 2.765.693 10.62.693 10.62.51 4.456 5.796 6.264 8.305 6.62 5.256-.587 8.03-4.273 8.2-6.62.167-2.346.777-9.782.777-12.338 0-2.044-.575-3.994-.862-4.713.572.486.911 1.795 1.01 2.388.184-3.385-1.62-4.19-2.545-4.168-.147-1.634-.988-2.807-2.438-3.331C33.642.63 32.077.498 31.44.484c1.126-.117 2.333.05 2.796.147-3.07-1.383-6.644-.21-9.02.817-1.9.821-2.585 2.772-2.69 3.645V3.71z" fill="#000"/><path d="M24.192 6.873c-1.648 1.475-1.808 6.787-1.682 9.26 0 .704.151 2.387 1.01 4.482.857 2.095 2.389 2.025 2.9 1.676.74-.889 1.83-1.271 2.397-1.425.152.352.694.287.946.21.858.352 1.773.146 2.124 0 .538.167.84-.07.925-.21 1.156.105 1.471 1.131 2.859 1.571 1.388.44 2.649-1.948 2.964-3.519.316-1.57.232-6.766-.294-9.845-.42-2.464-1.759-3.135-2.376-3.163-.378.32-2.026.938-5.592.838-4.457-.126-4.12-1.718-6.181.125z" fill="#F8AF78"/><path d="M23.76 12.208c-.267-.097-.411-.427-.466-.641a.126.126 0 01.053-.135c1.913-1.298 4.284-.772 5.306-.316a.124.124 0 01.075.105c.033.51-.343.835-.593.963a.13.13 0 01-.129-.01c-1.677-1.065-3.952-.038-4.207.037a.062.062 0 01-.04-.003zm13.841.009c.267-.098.411-.427.466-.642a.126.126 0 00-.053-.134c-1.913-1.298-4.284-.772-5.307-.316a.124.124 0 00-.074.105c-.034.51.343.834.593.963a.13.13 0 00.128-.01c1.678-1.065 3.953-.038 4.207.037a.062.062 0 00.04-.003z" fill="#000"/><path fill-rule="evenodd" clip-rule="evenodd" d="M21.068 14.142v-1.424c.862-.182 3.188-.49 5.593-.273 1.558.141 2.049.322 2.432.463.357.132.62.229 1.562.229.942 0 1.205-.098 1.562-.229.383-.14.874-.322 2.433-.463 2.405-.218 4.73.091 5.592.273v1.424c-.252.272-.782.926-.883 1.362-.126.544-.694 2.828-4.33 2.64-.863-.022-2.696-.34-3.134-1.446a40.292 40.292 0 01-.274-.72c-.343-.916-.523-1.4-.966-1.417-.442.017-.623.5-.966 1.417-.08.216-.17.456-.274.72-.438 1.106-2.27 1.424-3.133 1.445-3.637.189-4.205-2.095-4.33-2.64-.102-.435-.631-1.089-.884-1.36zm1.493 1.572a4.113 4.113 0 010-1.739c.39-1.26 2.739-1.094 4.338-.98.209.014.405.028.582.037 1.731.095 2.165 1.404 1.745 2.682-.42 1.277-.988 2.262-3.595 2.074-2.607-.189-2.86-1.11-3.07-2.074zm16.266-1.739c.07.314.168.968 0 1.739-.21.963-.463 1.885-3.07 2.074-2.607.188-3.174-.797-3.595-2.074-.42-1.278.013-2.587 1.745-2.682.177-.01.373-.023.582-.038 1.599-.113 3.947-.279 4.338.981z" fill="#000"/><path d="M28.084 22.828c1.309.308 2.28.357 2.573.357.292 0 1.266-.049 2.577-.358.027-.006.053.014.051.041-.036.747-.71 2.167-2.628 2.167-1.914 0-2.59-1.414-2.629-2.162a.044.044 0 01.056-.045z" fill="#FF1010"/><path d="M28.084 22.828c1.309.308 2.28.357 2.573.357.292 0 1.266-.049 2.577-.358.027-.006.053.014.051.041a2.05 2.05 0 01-.18.709.043.043 0 01-.017.02c-.217.12-.982.35-2.431.35-1.45 0-2.215-.23-2.431-.35a.043.043 0 01-.018-.02 2.055 2.055 0 01-.18-.704.045.045 0 01.056-.045z" fill="#fff"/><ellipse cx="26.029" cy="14.96" rx=".862" ry=".859" fill="#000"/><circle cx="26.261" cy="14.771" fill="#fff" r=".294"/><ellipse cx="35.322" cy="14.959" rx=".862" ry=".859" fill="#000"/><circle cx="35.553" cy="14.771" fill="#fff" r=".294"/><path d="M39.376 62.018c.425 0 .794.296.885.712l1.316 6.003a.906.906 0 01-.885 1.1H21.72c-.572 0-1-.522-.889-1.083l1.198-6.003a.906.906 0 01.89-.729h16.457z" fill="#000"/><path d="M39.43 62.63a.44.44 0 01.43.347l1.252 5.712a.44.44 0 01-.43.534H21.895a.44.44 0 01-.432-.527l1.151-5.712a.44.44 0 01.431-.353H39.43z" fill="#fff"/><path d="M38.129 62.898c.133 0 .248.094.276.224l1.161 5.42a.283.283 0 01-.277.342H23.894a.283.283 0 01-.278-.34l1.099-5.419a.283.283 0 01.277-.227H38.13zm-15.027 2.219a.398.398 0 010 .795.398.398 0 110-.795z" fill="#000"/><path d="M83.847 40.11l-.916-3.424h-7.713l-.916 3.424h-8.21l8.515-26.631h8.935l8.514 26.63h-8.209zm-6.987-9.511h4.429l-2.215-8.18-2.214 8.18zm32.805 9.473l-4.239-8.37h-1.909v8.37h-7.636V13.44h10.691c2.927 0 5.345.862 7.254 2.587 1.91 1.7 2.864 3.956 2.864 6.772 0 1.572-.369 2.992-1.107 4.26-.713 1.269-1.718 2.296-3.017 3.082l5.27 9.93h-8.171zm-6.148-19.631v4.946h2.902c.815.025 1.451-.178 1.909-.61.484-.43.726-1.039.726-1.825s-.242-1.395-.726-1.826c-.458-.457-1.094-.685-1.909-.685h-2.902zm32.303 19.631l-4.239-8.37h-1.909v8.37h-7.636V13.44h10.691c2.927 0 5.345.862 7.254 2.587 1.91 1.7 2.864 3.956 2.864 6.772 0 1.572-.369 2.992-1.107 4.26-.713 1.269-1.718 2.296-3.017 3.082l5.27 9.93h-8.171zm-6.148-19.631v4.946h2.902c.815.025 1.451-.178 1.909-.61.484-.43.726-1.039.726-1.825s-.242-1.395-.726-1.826c-.458-.457-1.094-.685-1.909-.685h-2.902zm41.399 16.283c-2.724 2.663-6.071 3.994-10.042 3.994s-7.331-1.331-10.08-3.994c-2.724-2.689-4.086-5.998-4.086-9.93 0-3.931 1.362-7.228 4.086-9.891 2.749-2.689 6.109-4.033 10.08-4.033s7.318 1.344 10.042 4.033c2.749 2.663 4.124 5.96 4.124 9.891s-1.375 7.241-4.124 9.93zm-14.738-5.288c1.247 1.217 2.812 1.826 4.696 1.826s3.436-.609 4.658-1.826c1.248-1.243 1.871-2.79 1.871-4.642 0-1.851-.623-3.386-1.871-4.603-1.222-1.243-2.774-1.864-4.658-1.864-1.884 0-3.449.621-4.696 1.864-1.222 1.217-1.833 2.752-1.833 4.603 0 1.852.611 3.399 1.833 4.642zm38.525-17.957h7.637v26.63h-6.109l-8.4-12.173V40.11h-7.637V13.479h6.109l8.4 12.174V13.479z" fill="#E2001A"/><rect x="66.079" y="45.101" width="136.421" height="11.951" rx="5.976" fill="#276CAA"/><path d="M78.288 54.303c-.612 0-1.134-.139-1.564-.417a2.198 2.198 0 01-.891-1.141l.9-.525c.255.712.782 1.069 1.582 1.069.394 0 .688-.076.882-.227.2-.157.3-.36.3-.607a.65.65 0 00-.318-.589c-.213-.139-.588-.29-1.128-.453a7.666 7.666 0 01-.736-.253 3.741 3.741 0 01-.6-.326 1.397 1.397 0 01-.464-.535 1.677 1.677 0 01-.154-.742c0-.562.2-1.006.6-1.332.4-.332.882-.498 1.445-.498.51 0 .955.124 1.337.371.381.248.675.589.881 1.024l-.881.507c-.267-.592-.713-.888-1.337-.888-.303 0-.545.073-.727.218a.68.68 0 00-.273.57.67.67 0 00.273.562c.188.133.524.275 1.009.426.242.078.418.139.527.18.115.037.273.097.473.182.206.085.36.17.464.254.103.084.212.19.327.317.121.127.206.271.254.434.049.163.073.348.073.553 0 .574-.209 1.03-.627 1.368-.412.332-.955.498-1.627.498zm7.792-1.114h2.82v.996h-3.864v-6.34h3.818v.996h-2.772v1.648h2.545v.988H86.08v1.712zm11.04.996l-1.346-2.31h-1.236v2.31h-1.046v-6.34h2.546c.57 0 1.051.199 1.445.597.4.393.6.873.6 1.44 0 .405-.118.777-.354 1.115-.23.332-.534.574-.91.724l1.446 2.464H97.12zm-2.582-5.362v2.12h1.5a.938.938 0 00.709-.308c.194-.206.29-.456.29-.752s-.096-.547-.29-.752a.939.939 0 00-.71-.308h-1.5zm9.695 5.362l-2.209-6.34h1.146l1.691 5.081 1.7-5.081h1.136l-2.209 6.34h-1.255zm7.781-6.34h1.045v6.34h-1.045v-6.34zm8.962 6.458c-.957 0-1.751-.314-2.382-.942-.63-.634-.945-1.416-.945-2.346 0-.93.315-1.71.945-2.337.631-.634 1.425-.951 2.382-.951a3.2 3.2 0 011.591.407c.491.272.873.64 1.146 1.105l-.909.526a1.841 1.841 0 00-.746-.743 2.109 2.109 0 00-1.082-.28c-.679 0-1.23.214-1.654.642-.419.43-.628.973-.628 1.63 0 .66.209 1.203.628 1.631.424.43.975.643 1.654.643.4 0 .764-.09 1.091-.271.327-.187.573-.438.737-.752l.909.516a2.962 2.962 0 01-1.137 1.114 3.217 3.217 0 01-1.6.408zm8.287-1.114h2.818v.996h-3.863v-6.34h3.818v.996h-2.773v1.648h2.546v.988h-2.546v1.712zm16.33 1.114c-.957 0-1.751-.314-2.382-.942-.63-.634-.945-1.416-.945-2.346 0-.93.315-1.71.945-2.337.631-.634 1.425-.951 2.382-.951a3.2 3.2 0 011.591.407c.491.272.873.64 1.146 1.105l-.909.526a1.841 1.841 0 00-.746-.743 2.109 2.109 0 00-1.082-.28c-.679 0-1.23.214-1.654.642-.419.43-.628.973-.628 1.63 0 .66.209 1.203.628 1.631.424.43.975.643 1.654.643.4 0 .764-.09 1.091-.271.327-.187.573-.438.737-.752l.909.516a2.962 2.962 0 01-1.137 1.114 3.217 3.217 0 01-1.6.408zm8.287-1.114h2.818v.996h-3.863v-6.34h3.818v.996h-2.773v1.648h2.546v.988h-2.546v1.712zm11.23-5.344h1.046v6.34h-.819l-3-4.302v4.302h-1.045v-6.34h.818l3 4.302v-4.302zm10.089 0v.996h-1.791v5.344h-1.045v-5.344h-1.8v-.996h4.636zm5.455 5.344h2.819v.996h-3.864v-6.34h3.818v.996h-2.773v1.648h2.546v.988h-2.546v1.712zm11.039.996l-1.345-2.31h-1.236v2.31h-1.046v-6.34h2.546c.569 0 1.051.199 1.445.597.4.393.6.873.6 1.44 0 .405-.118.777-.354 1.115a1.987 1.987 0 01-.91.724l1.446 2.464h-1.146zm-2.581-5.362v2.12h1.5a.94.94 0 00.709-.308c.194-.206.291-.456.291-.752s-.097-.547-.291-.752a.94.94 0 00-.709-.308h-1.5z" fill="#fff"/></svg>