<svg width="32" height="32" fill="none" xmlns="http://www.w3.org/2000/svg"><path d="M29.333 22.56v4a2.666 2.666 0 01-2.906 2.667 26.387 26.387 0 01-11.507-4.094 25.999 25.999 0 01-8-8 26.387 26.387 0 01-4.093-11.56A2.667 2.667 0 015.48 2.667h4a2.667 2.667 0 012.667 2.293c.168 1.28.482 2.537.933 3.747a2.667 2.667 0 01-.6 2.813l-1.693 1.693a21.332 21.332 0 008 8l1.693-1.693a2.666 2.666 0 012.813-.6 17.16 17.16 0 003.747.933 2.666 2.666 0 012.293 2.707z" fill="#005AAA"/><path d="M20.067 6.667a6.667 6.667 0 015.266 5.267m-5.266-10.6a12 12 0 0110.6 10.586" stroke="#FFD66B" stroke-width="2" stroke-linecap="round" stroke-linejoin="round"/></svg>