<svg width="50" height="41" viewBox="0 0 50 41" fill="none" xmlns="http://www.w3.org/2000/svg">
<g clip-path="url(#clip0_12_665)">
<path d="M5.8167 34.4841C4.64911 34.4841 3.86345 35.4007 3.86345 36.5792C3.86345 37.7577 4.64911 38.6743 5.8167 38.6743C6.98428 38.6743 7.76994 37.7577 7.76994 36.5792C7.75903 35.4007 6.97337 34.4841 5.8167 34.4841ZM5.55481 33.1856C6.49324 33.1856 7.2789 33.6657 7.64991 34.1895V33.3165H9.09029V39.8528H7.97727C7.89053 39.8526 7.80741 39.818 7.74608 39.7566C7.68474 39.6953 7.65017 39.6122 7.64991 39.5255V38.9799C7.2789 39.5036 6.50415 39.9838 5.55481 39.9838C3.76524 39.9838 2.40125 38.4561 2.40125 36.5901C2.40125 34.7242 3.75433 33.1856 5.55481 33.1856ZM10.7271 33.3165H12.1675V34.2004C12.5603 33.5457 13.3023 33.1856 14.1535 33.1856C15.6702 33.1856 16.6523 34.255 16.6523 35.9136V39.8528H15.5502C15.4634 39.8526 15.3803 39.818 15.319 39.7566C15.2577 39.6953 15.2231 39.6122 15.2228 39.5255V36.1537C15.2228 35.117 14.6991 34.495 13.8588 34.495C12.9095 34.495 12.1675 35.237 12.1675 36.6338V39.8528H11.0654C10.9786 39.8526 10.8955 39.818 10.8342 39.7566C10.7728 39.6953 10.7383 39.6122 10.738 39.5255L10.7271 33.3165ZM21.1917 34.4841C20.0241 34.4841 19.2384 35.4007 19.2384 36.5792C19.2384 37.7577 20.0241 38.6743 21.1917 38.6743C22.3593 38.6743 23.1449 37.7577 23.1449 36.5792C23.1449 35.4007 22.3593 34.4841 21.1917 34.4841ZM20.9298 33.1856C21.8682 33.1856 22.6539 33.6657 23.0249 34.1895V30.0429H24.4653V39.8528H23.3632C23.2764 39.8526 23.1933 39.818 23.132 39.7566C23.0706 39.6953 23.0361 39.6122 23.0358 39.5255V38.9799C22.6648 39.5036 21.89 39.9838 20.9407 39.9838C19.1511 39.9838 17.7871 38.4561 17.7871 36.5901C17.7871 34.7242 19.1402 33.1856 20.9298 33.1856ZM26.1021 33.3165H27.5425V34.4841C27.669 34.1268 27.9022 33.8169 28.2105 33.5963C28.5189 33.3758 28.8875 33.2553 29.2666 33.2511C29.4535 33.2476 29.6403 33.2659 29.8231 33.3056V34.7787C29.5908 34.7009 29.3478 34.6604 29.1029 34.6587C28.2845 34.6587 27.5315 35.3571 27.5315 36.6556V39.8419H26.4294C26.3427 39.8416 26.2596 39.8071 26.1982 39.7457C26.1369 39.6844 26.1023 39.6013 26.1021 39.5145V33.3165ZM33.6968 38.6416C34.8426 38.6416 35.661 37.7359 35.661 36.5792C35.661 35.4116 34.8535 34.5169 33.6968 34.5169C32.5292 34.5169 31.7218 35.4225 31.7218 36.5792C31.7327 37.7468 32.5292 38.6416 33.6968 38.6416ZM33.6968 39.9838C33.0255 39.9784 32.3707 39.7743 31.8152 39.3973C31.2597 39.0203 30.8282 38.4873 30.5753 37.8654C30.3223 37.2435 30.2592 36.5606 30.3939 35.9029C30.5285 35.2451 30.855 34.642 31.332 34.1696C31.809 33.6971 32.4152 33.3765 33.0742 33.2482C33.7332 33.1198 34.4154 33.1895 35.0349 33.4484C35.6543 33.7073 36.1832 34.1439 36.5549 34.703C36.9265 35.2621 37.1243 35.9188 37.1232 36.5901C37.1254 37.0392 37.0381 37.4842 36.8663 37.8991C36.6945 38.314 36.4417 38.6904 36.1226 39.0064C35.8036 39.3224 35.4247 39.5716 35.0082 39.7395C34.5916 39.9073 34.1458 39.9903 33.6968 39.9838ZM38.2908 33.3165H39.7311V39.8528H38.629C38.5423 39.8526 38.4592 39.818 38.3978 39.7566C38.3365 39.6953 38.3019 39.6122 38.3017 39.5255L38.2908 33.3165ZM39.011 31.8871C38.7541 31.8846 38.5085 31.7816 38.3269 31.5999C38.1453 31.4183 38.0422 31.1727 38.0398 30.9159C38.0449 30.662 38.1496 30.4202 38.3312 30.2426C38.5129 30.0651 38.757 29.9659 39.011 29.9666C39.2656 29.9666 39.5099 30.0677 39.69 30.2478C39.87 30.4279 39.9712 30.6721 39.9712 30.9268C39.9712 31.1815 39.87 31.4257 39.69 31.6058C39.5099 31.7859 39.2656 31.8871 39.011 31.8871ZM44.3251 34.4841C43.1575 34.4841 42.3718 35.4007 42.3718 36.5792C42.3718 37.7577 43.1575 38.6743 44.3251 38.6743C45.4927 38.6743 46.2783 37.7577 46.2783 36.5792C46.2565 35.4007 45.4927 34.4841 44.3251 34.4841ZM44.0632 33.1856C45.0016 33.1856 45.7873 33.6657 46.1583 34.1895V30.0429H47.5987V39.8528H46.4966C46.4098 39.8526 46.3267 39.818 46.2654 39.7566C46.204 39.6953 46.1695 39.6122 46.1692 39.5255V38.9799C45.7982 39.5036 45.0235 39.9838 44.0741 39.9838C42.2845 39.9838 40.9206 38.4561 40.9206 36.5901C40.9206 34.7242 42.2736 33.1856 44.0632 33.1856Z" fill="black"/>
<path d="M36.0756 8.10985L39.8403 1.5954C39.9412 1.41615 39.9675 1.20435 39.9134 1.00587C39.8594 0.807376 39.7293 0.638166 39.5514 0.534867C39.3735 0.431568 39.1621 0.402493 38.9629 0.453937C38.7637 0.505382 38.5928 0.633205 38.4872 0.809734L34.6789 7.40057C31.639 6.03392 28.3439 5.32729 25.0109 5.32729C21.6779 5.32729 18.3828 6.03392 15.3429 7.40057L11.5346 0.809734C11.4289 0.633205 11.258 0.505382 11.0589 0.453937C10.8597 0.402493 10.6482 0.431568 10.4703 0.534867C10.2924 0.638166 10.1624 0.807376 10.1083 1.00587C10.0543 1.20435 10.0805 1.41615 10.1815 1.5954L13.9461 8.10985C7.45349 11.6235 3.04505 18.1598 2.40125 25.8745H47.5769C46.9331 18.1598 42.5137 11.6235 36.0756 8.10985ZM14.6008 19.4365C14.2296 19.4365 13.8668 19.3264 13.5581 19.1202C13.2495 18.9139 13.0089 18.6208 12.8668 18.2779C12.7248 17.9349 12.6876 17.5575 12.76 17.1935C12.8325 16.8294 13.0112 16.495 13.2737 16.2325C13.5362 15.97 13.8706 15.7912 14.2347 15.7188C14.5988 15.6464 14.9761 15.6836 15.3191 15.8256C15.662 15.9677 15.9552 16.2082 16.1614 16.5169C16.3676 16.8255 16.4777 17.1884 16.4777 17.5596C16.4777 18.0574 16.28 18.5348 15.928 18.8868C15.576 19.2387 15.0986 19.4365 14.6008 19.4365ZM35.3991 19.4365C35.0279 19.4365 34.665 19.3264 34.3564 19.1202C34.0477 18.9139 33.8072 18.6208 33.6651 18.2779C33.523 17.9349 33.4859 17.5575 33.5583 17.1935C33.6307 16.8294 33.8095 16.495 34.0719 16.2325C34.3344 15.97 34.6689 15.7912 35.0329 15.7188C35.397 15.6464 35.7744 15.6836 36.1173 15.8256C36.4603 15.9677 36.7534 16.2082 36.9596 16.5169C37.1659 16.8255 37.276 17.1884 37.276 17.5596C37.276 18.0574 37.0782 18.5348 36.7262 18.8868C36.3743 19.2387 35.8969 19.4365 35.3991 19.4365Z" fill="#3DDC84"/>
</g>
<defs>
<clipPath id="clip0_12_665">
<rect width="49.3827" height="40" fill="white" transform="translate(0.308594 0.317993)"/>
</clipPath>
</defs>
</svg>
