<svg width="33" height="41" viewBox="0 0 33 41" fill="none" xmlns="http://www.w3.org/2000/svg">
<path d="M27.2032 21.5432C27.2594 27.5965 32.5136 29.6109 32.5718 29.6365C32.5273 29.7785 31.7323 32.5071 29.8037 35.3256C28.1364 37.7623 26.4061 40.19 23.6804 40.2403C21.002 40.2897 20.1408 38.6521 17.0787 38.6521C14.0175 38.6521 13.0607 40.1901 10.5253 40.2897C7.89427 40.3894 5.89068 37.6548 4.20971 35.227C0.774709 30.2609 -1.85035 21.194 1.67444 15.0737C3.42548 12.0343 6.55471 10.1096 9.95122 10.0603C12.5348 10.011 14.9734 11.7984 16.5529 11.7984C18.1314 11.7984 21.0948 9.64887 24.2101 9.96457C25.5143 10.0188 29.1753 10.4914 31.526 13.9323C31.3366 14.0497 27.1578 16.4824 27.2032 21.5432ZM22.1696 6.67907C23.5665 4.98825 24.5066 2.63447 24.2501 0.29248C22.2367 0.373404 19.802 1.63418 18.3578 3.32407C17.0635 4.82054 15.93 7.21575 16.2358 9.51138C18.4801 9.68501 20.7727 8.37096 22.1696 6.67907Z" fill="black"/>
</svg>
