<svg width="90" height="14" viewBox="0 0 90 14" fill="none" xmlns="http://www.w3.org/2000/svg">
<path d="M10.0641 5.52834L1.94811 0.362772C1.29987 -0.0520289 0.450684 0.414615 0.450684 1.18588V12.2494C0.450684 13.0466 1.35174 13.5003 1.99349 13.0336L10.1095 7.13569C10.6734 6.72737 10.6475 5.89777 10.0641 5.52834Z" fill="#DCE0E2"/>
<path d="M29.7263 5.52828L21.6104 0.362711C20.9622 -0.0520899 20.113 0.414554 20.113 1.18582V12.2493C20.113 13.0465 21.014 13.5002 21.6558 13.0336L29.7717 7.13562C30.3292 6.72731 30.3033 5.89771 29.7263 5.52828Z" fill="#DCE0E2"/>
<path d="M49.386 5.52828L41.27 0.362711C40.6218 -0.0520899 39.7726 0.414554 39.7726 1.18582V12.2493C39.7726 13.0465 40.6736 13.5002 41.3154 13.0336L49.4313 7.13562C49.9888 6.72731 49.9629 5.89771 49.386 5.52828Z" fill="#DCE0E2"/>
<path d="M69.0475 5.52828L60.9315 0.362711C60.2833 -0.0520899 59.4341 0.414554 59.4341 1.18582V12.2493C59.4341 13.0465 60.3351 13.5002 60.9769 13.0336L69.0928 7.13562C69.6503 6.72731 69.6244 5.89771 69.0475 5.52828Z" fill="#DCE0E2"/>
<path d="M88.7091 5.52828L80.5931 0.362711C79.9449 -0.0520899 79.0957 0.414554 79.0957 1.18582V12.2493C79.0957 13.0465 79.9968 13.5002 80.6385 13.0336L88.7545 7.13562C89.3119 6.72731 89.286 5.89771 88.7091 5.52828Z" fill="#DCE0E2"/>
</svg>
