<svg width="35" height="45" viewBox="0 0 35 45" fill="none" xmlns="http://www.w3.org/2000/svg">
<path d="M1.2 0C12.1 0 23 0 33.8 0C34.7 0.3 35 1 35 1.9C35 15.6 35 29.4 35 43.1C35 44.4 34.4 45 33.2 45C22.8 45 12.4 45 1.9 45C0.6 45 0 44.4 0 43.1C0 29.4 0 15.6 0 1.9C0 1 0.3 0.3 1.2 0Z" fill="#005AAA"/>
<path d="M23.1 28.7998C24.4 28.7998 25.7 28.7998 27 28.7998C27.9 28.7998 28.6 28.1998 28.6 27.2998C28.6 26.3998 28 25.7998 27 25.7998C24.4 25.7998 21.9 25.7998 19.3 25.7998C18.3 25.7998 17.7 26.3998 17.7 27.2998C17.7 28.1998 18.3 28.7998 19.4 28.7998C20.6 28.7998 21.8 28.7998 23.1 28.7998Z" fill="#FFD66B"/>
<path d="M23.1 17C21.8 17 20.6 17 19.3 17C19.1 17 18.8 17 18.6 17.1C17.9 17.3 17.5 18 17.6 18.8C17.7 19.6 18.3 20.1 19.2 20.1C21.8 20.1 24.3 20.1 26.9 20.1C27.9 20.1 28.5 19.5 28.6 18.6C28.6 17.7 28 17.1 26.9 17.1C25.7 17 24.4 17 23.1 17Z" fill="#FFD66B"/>
<path d="M23.1 11.1001C24.4 11.1001 25.7 11.1001 27 11.1001C27.9 11.1001 28.5 10.5001 28.6 9.6001C28.6 8.7001 28 8.1001 27 8.1001C24.4 8.1001 21.8 8.1001 19.1 8.1001C18.5 8.1001 18 8.3001 17.7 8.9001C17.1 9.9001 17.8 11.1001 19 11.1001C20.4 11.1001 21.8 11.1001 23.1 11.1001Z" fill="#FFD66B"/>
<path d="M23.1 34.7002C21.8 34.7002 20.5 34.7002 19.3 34.7002C18.5 34.7002 18 35.0002 17.8 35.6002C17.4 36.6002 18.1 37.6002 19.3 37.7002C20.8 37.7002 22.3 37.7002 23.8 37.7002C24.9 37.7002 26 37.7002 27.1 37.7002C27.7 37.7002 28.2 37.5002 28.5 36.9002C29.1 35.9002 28.4 34.7002 27.1 34.7002C25.7 34.7002 24.4 34.7002 23.1 34.7002Z" fill="#FFD66B"/>
<path d="M9.6 11.8999C10 11.8999 10.3 11.7999 10.6 11.4999C11.7 10.3999 12.7 9.3999 13.8 8.2999C14.4 7.5999 14.4 6.7999 13.8 6.0999C13.2 5.4999 12.3 5.4999 11.6 6.0999C11.1 6.5999 10.6 7.0999 10.1 7.5999C9.5 8.1999 9.5 8.1999 9 7.6999C8.3 7.0999 7.5 7.0999 6.9 7.6999C6.3 8.2999 6.3 9.1999 6.9 9.7999C7.4 10.3999 8 10.8999 8.5 11.3999C8.8 11.7999 9.1 11.8999 9.6 11.8999Z" fill="#FFD66B"/>
<path d="M9.5 38.4999C9.9 38.4999 10.3 38.2999 10.6 37.9999C11.6 36.9999 12.7 35.8999 13.7 34.8999C14.4 34.1999 14.4 33.2999 13.7 32.6999C13.1 32.0999 12.2 32.0999 11.5 32.7999C11 33.2999 10.4 33.8999 9.9 34.3999C9.4 34.8999 9.4 34.8999 9 34.3999C8.3 33.6999 7.5 33.6999 6.8 34.2999C6.2 34.8999 6.2 35.7999 6.8 36.4999C7.3 36.9999 7.8 37.4999 8.3 37.9999C8.7 38.3999 9.1 38.4999 9.5 38.4999Z" fill="#FFD66B"/>
<path d="M7.9 16.2002C7.3 16.2002 6.8 16.5002 6.5 17.1002C6.2 17.7002 6.3 18.3002 6.8 18.7002C7.3 19.3002 7.8 19.8002 8.4 20.3002C9.1 21.0002 9.9 21.0002 10.6 20.3002C11.6 19.3002 12.7 18.2002 13.7 17.2002C14.4 16.5002 14.4 15.6002 13.7 15.0002C13.1 14.4002 12.2 14.4002 11.5 15.1002C10.9 15.7002 10.4 16.2002 9.8 16.8002C9.5 17.1002 9.3 17.2002 9 16.8002C8.8 16.4002 8.4 16.1002 7.9 16.2002Z" fill="#FFD66B"/>
<path d="M9.5 29.6C10 29.6 10.3 29.4 10.6 29.1C11.6 28.1 12.6 27 13.7 26C14.4 25.3 14.4 24.4 13.8 23.8C13.2 23.2 12.3 23.2 11.6 23.9C11.1 24.4 10.6 24.9 10.1 25.5C9.6 26 9.6 26 9.1 25.5C8.4 24.9 7.6 24.9 7 25.5C6.4 26.1 6.4 27 7 27.7C7.5 28.2 8.1 28.8 8.6 29.3C8.8 29.5 9.1 29.6 9.5 29.6Z" fill="#FFD66B"/>
</svg>
