<svg width="57" height="57" viewBox="0 0 57 57" fill="none" xmlns="http://www.w3.org/2000/svg">
<path d="M2.82858 0.102295C1.47399 0.102295 0.378662 1.19763 0.378662 2.55221C0.378662 3.90679 1.47399 5.00213 2.82858 5.00213C4.18316 5.00213 5.27849 3.90679 5.27849 2.55221C5.27849 1.19763 4.18316 0.102295 2.82858 0.102295Z" fill="#005AAA"/>
<path d="M19.9941 0.102295C18.6395 0.102295 17.5442 1.19763 17.5442 2.55221C17.5442 3.90679 18.6395 5.00213 19.9941 5.00213C21.3487 5.00213 22.444 3.90679 22.444 2.55221C22.444 1.19763 21.3487 0.102295 19.9941 0.102295Z" fill="#005AAA"/>
<path d="M37.1598 0.102295C35.8052 0.102295 34.7098 1.19763 34.7098 2.55221C34.7098 3.90679 35.8052 5.00213 37.1598 5.00213C38.5143 5.00213 39.6097 3.90679 39.6097 2.55221C39.6097 1.19763 38.5143 0.102295 37.1598 0.102295Z" fill="#005AAA"/>
<path d="M54.3254 5.00847C55.68 5.00847 56.7753 3.91314 56.7753 2.55856C56.7753 1.20397 55.68 0.108643 54.3254 0.108643C52.9708 0.108643 51.8755 1.20397 51.8755 2.55856C51.8755 3.91314 52.9708 5.00847 54.3254 5.00847Z" fill="#005AAA"/>
<path d="M2.82846 17.2648C1.47387 17.2648 0.37854 18.3601 0.37854 19.7147C0.37854 21.0693 1.47387 22.1646 2.82846 22.1646C4.18304 22.1646 5.27837 21.0693 5.27837 19.7147C5.28485 18.3601 4.18304 17.2648 2.82846 17.2648Z" fill="#005AAA"/>
<path d="M19.9941 17.2645C18.6395 17.2645 17.5442 18.3599 17.5442 19.7144C17.5442 21.069 18.6395 22.1644 19.9941 22.1644C21.3487 22.1644 22.444 21.069 22.444 19.7144C22.444 18.3599 21.3487 17.2645 19.9941 17.2645Z" fill="#005AAA"/>
<path d="M37.1598 17.2645C35.8052 17.2645 34.7098 18.3599 34.7098 19.7144C34.7098 21.069 35.8052 22.1644 37.1598 22.1644C38.5143 22.1644 39.6097 21.069 39.6097 19.7144C39.6097 18.3599 38.5143 17.2645 37.1598 17.2645Z" fill="#005AAA"/>
<path d="M54.3254 17.2645C52.9708 17.2645 51.8755 18.3599 51.8755 19.7144C51.8755 21.069 52.9708 22.1644 54.3254 22.1644C55.68 22.1644 56.7753 21.069 56.7753 19.7144C56.7753 18.3599 55.68 17.2645 54.3254 17.2645Z" fill="#005AAA"/>
<path d="M2.82846 34.427C1.47387 34.427 0.37854 35.5223 0.37854 36.8769C0.37854 38.2315 1.47387 39.3268 2.82846 39.3268C4.18304 39.3268 5.27837 38.2315 5.27837 36.8769C5.28485 35.5223 4.18304 34.427 2.82846 34.427Z" fill="#005AAA"/>
<path d="M19.9941 34.427C18.6395 34.427 17.5442 35.5223 17.5442 36.8769C17.5442 38.2315 18.6395 39.3268 19.9941 39.3268C21.3487 39.3268 22.444 38.2315 22.444 36.8769C22.444 35.5223 21.3487 34.427 19.9941 34.427Z" fill="#005AAA"/>
<path d="M37.1598 34.427C35.8052 34.427 34.7098 35.5223 34.7098 36.8769C34.7098 38.2315 35.8052 39.3268 37.1598 39.3268C38.5143 39.3268 39.6097 38.2315 39.6097 36.8769C39.6097 35.5223 38.5143 34.427 37.1598 34.427Z" fill="#005AAA"/>
<path d="M54.3254 34.427C52.9708 34.427 51.8755 35.5223 51.8755 36.8769C51.8755 38.2315 52.9708 39.3268 54.3254 39.3268C55.68 39.3268 56.7753 38.2315 56.7753 36.8769C56.7753 35.5223 55.68 34.427 54.3254 34.427Z" fill="#005AAA"/>
<path d="M2.82846 51.5829C1.47387 51.5829 0.37854 52.6782 0.37854 54.0328C0.37854 55.3874 1.47387 56.4827 2.82846 56.4827C4.18304 56.4827 5.27837 55.3874 5.27837 54.0328C5.28485 52.6847 4.18304 51.5829 2.82846 51.5829Z" fill="#005AAA"/>
<path d="M19.9941 51.5829C18.6395 51.5829 17.5442 52.6782 17.5442 54.0328C17.5442 55.3874 18.6395 56.4827 19.9941 56.4827C21.3487 56.4827 22.444 55.3874 22.444 54.0328C22.444 52.6847 21.3487 51.5829 19.9941 51.5829Z" fill="#005AAA"/>
<path d="M37.1598 51.5829C35.8052 51.5829 34.7098 52.6782 34.7098 54.0328C34.7098 55.3874 35.8052 56.4827 37.1598 56.4827C38.5143 56.4827 39.6097 55.3874 39.6097 54.0328C39.6097 52.6847 38.5143 51.5829 37.1598 51.5829Z" fill="#005AAA"/>
<path d="M54.3254 51.5829C52.9708 51.5829 51.8755 52.6782 51.8755 54.0328C51.8755 55.3874 52.9708 56.4827 54.3254 56.4827C55.68 56.4827 56.7753 55.3874 56.7753 54.0328C56.7753 52.6847 55.68 51.5829 54.3254 51.5829Z" fill="#005AAA"/>
</svg>
