<?xml version="1.0" encoding="utf-8"?><svg viewBox="0 0 32 32" xmlns="http://www.w3.org/2000/svg" xmlns:xlink="http://www.w3.org/1999/xlink"><style>:root>svg{display:none}:root>svg:target{display:block}</style><svg viewBox="0 0 8 15" id="arrow-right" xmlns="http://www.w3.org/2000/svg"><path d="M1 13.318l6-6-6-6"/></svg><svg viewBox="0 0 32 32" id="map" xmlns="http://www.w3.org/2000/svg"><path d="M28 13.333c0 9.334-12 17.334-12 17.334s-12-8-12-17.334a12 12 0 1124 0z"/><path d="M16 17.333a4 4 0 100-8 4 4 0 000 8z"/></svg><svg viewBox="0 0 18 17" id="tel" xmlns="http://www.w3.org/2000/svg"><path d="M15.735 13.171v2.294a1.525 1.525 0 01-1.042 1.454 1.534 1.534 0 01-.628.075 15.177 15.177 0 01-6.61-2.347 14.923 14.923 0 01-4.597-4.587A15.111 15.111 0 01.507 3.43a1.526 1.526 0 01.906-1.536c.195-.086.405-.13.618-.13h2.298A1.534 1.534 0 015.861 3.08a9.8 9.8 0 00.536 2.148 1.526 1.526 0 01-.345 1.613l-.972.97A12.244 12.244 0 009.676 12.4l.972-.97a1.532 1.532 0 011.617-.345 9.845 9.845 0 002.152.535 1.533 1.533 0 011.318 1.552zM10.411 4.058a3.832 3.832 0 013.026 3.02M10.41 1a6.9 6.9 0 014.11 1.97 6.875 6.875 0 011.98 4.1"/></svg></svg>