<?xml version="1.0" encoding="utf-8"?><svg viewBox="0 0 32 32" xmlns="http://www.w3.org/2000/svg" xmlns:xlink="http://www.w3.org/1999/xlink"><style>:root>svg{display:none}:root>svg:target{display:block}</style><svg viewBox="0 0 8 15" id="arrow-right" xmlns="http://www.w3.org/2000/svg"><path d="M1 13.318l6-6-6-6"/></svg><svg viewBox="0 0 24 24" id="exit" xmlns="http://www.w3.org/2000/svg"><path d="M18 6L6 18M6 6l12 12"/></svg><svg viewBox="0 0 13 23" id="faceb" xmlns="http://www.w3.org/2000/svg"><path fill-rule="evenodd" clip-rule="evenodd" d="M4.05 22.18h4.2v-9.7h3.1l.6-3.9h-3.7V5.63c0-1.099 1.05-1.699 2.05-1.699h1.8V.681L8.85.531c-3.1-.2-4.8 2.25-4.8 5.15v2.9H.5v3.9h3.55v9.7z"/></svg><svg viewBox="0 0 21 22" id="insta" xmlns="http://www.w3.org/2000/svg"><path fill-rule="evenodd" clip-rule="evenodd" d="M5.8.781h9.4c3 0 5.5 2.5 5.5 5.5v9.35c0 3-2.5 5.5-5.5 5.5H5.8c-3 0-5.5-2.5-5.5-5.5v-9.35c0-3.05 2.5-5.5 5.5-5.5zm10.15 3.55c.65 0 1.15.55 1.15 1.15 0 .65-.55 1.15-1.15 1.15-.7 0-1.15-.55-1.15-1.15 0-.6.5-1.15 1.15-1.15zm-5.45 1.05c3.05 0 5.6 2.55 5.6 5.55 0 3.05-2.55 5.55-5.55 5.55h-.05c-3 0-5.5-2.5-5.5-5.55 0-3 2.45-5.55 5.5-5.55zm0 1.9c2.05 0 3.7 1.65 3.7 3.65 0 2.05-1.65 3.7-3.65 3.7h-.05c-2 0-3.65-1.65-3.65-3.7 0-2 1.65-3.65 3.65-3.65zm-4.65-4.75h9.3c2.1 0 3.8 1.7 3.8 3.8v9.25c0 2.1-1.7 3.8-3.8 3.8h-9.3c-2.1 0-3.8-1.7-3.8-3.8v-9.25c0-2.1 1.7-3.8 3.8-3.8z"/></svg><svg viewBox="0 0 32 32" id="map" xmlns="http://www.w3.org/2000/svg"><path d="M28 13.333c0 9.334-12 17.334-12 17.334s-12-8-12-17.334a12 12 0 1124 0z"/><path d="M16 17.333a4 4 0 100-8 4 4 0 000 8z"/></svg><svg viewBox="0 0 18 17" id="tel" xmlns="http://www.w3.org/2000/svg"><path d="M15.735 13.171v2.294a1.525 1.525 0 01-1.042 1.454 1.534 1.534 0 01-.628.075 15.177 15.177 0 01-6.61-2.347 14.923 14.923 0 01-4.597-4.587A15.111 15.111 0 01.507 3.43a1.526 1.526 0 01.906-1.536c.195-.086.405-.13.618-.13h2.298A1.534 1.534 0 015.861 3.08a9.8 9.8 0 00.536 2.148 1.526 1.526 0 01-.345 1.613l-.972.97A12.244 12.244 0 009.676 12.4l.972-.97a1.532 1.532 0 011.617-.345 9.845 9.845 0 002.152.535 1.533 1.533 0 011.318 1.552zM10.411 4.058a3.832 3.832 0 013.026 3.02M10.41 1a6.9 6.9 0 014.11 1.97 6.875 6.875 0 011.98 4.1"/></svg><svg viewBox="0 0 18 21" id="tikt" xmlns="http://www.w3.org/2000/svg"><path fill-rule="evenodd" clip-rule="evenodd" d="M14.66 4.913c-1.12-.56-1.96-1.82-2.1-3.22 0-.28-.14-.56-.14-.84H9.06v13.44c0 1.54-1.26 2.8-2.8 2.8-.56 0-.98-.14-1.4-.28-.84-.42-1.54-1.4-1.54-2.52 0-1.54 1.26-2.8 2.94-2.8.28 0 .56 0 .84.14V8.273c-.28 0-.56-.14-.84-.14-3.36 0-6.16 2.8-6.16 6.16 0 2.1 1.12 3.92 2.66 5.04.98.7 2.24 1.12 3.5 1.12 3.36 0 6.16-2.8 6.16-6.16v-7a6.201 6.201 0 004.62 1.54v-3.36c-.84.28-1.68 0-2.38-.56z"/></svg><svg viewBox="0 0 21 15" id="yout" xmlns="http://www.w3.org/2000/svg"><path fill-rule="evenodd" clip-rule="evenodd" d="M4.48.933c1.96-.14 4.2-.28 6.02-.28 1.82 0 4.06.14 6.02.28 2.24.14 3.5.56 3.78 2.94.14 1.12.28 2.52.28 3.92 0 1.54-.14 2.94-.28 3.92-.28 2.38-1.54 2.66-3.78 2.94-1.96.14-4.2.28-6.02.28-1.82 0-4.06 0-6.02-.28-2.24-.14-3.5-.56-3.78-2.94-.14-.98-.14-2.52-.14-3.92 0-1.54.14-2.94.14-3.92.28-2.38 1.54-2.8 3.78-2.94z"/><path fill-rule="evenodd" clip-rule="evenodd" d="M8.54 4.713l5.18 3.08-5.18 3.08v-6.16z"/></svg></svg>