<svg width="21" height="22" viewBox="0 0 21 22" fill="none" xmlns="http://www.w3.org/2000/svg">
<path fill-rule="evenodd" clip-rule="evenodd" d="M5.79993 0.78125H15.1999C18.1999 0.78125 20.6999 3.28123 20.6999 6.2812V15.6311C20.6999 18.6311 18.1999 21.1311 15.1999 21.1311H5.79993C2.79993 21.1311 0.299927 18.6311 0.299927 15.6311V6.2812C0.299927 3.23123 2.79993 0.78125 5.79993 0.78125ZM15.9499 4.33122C16.5999 4.33122 17.0999 4.88122 17.0999 5.48121C17.0999 6.13121 16.5499 6.6312 15.9499 6.6312C15.2499 6.6312 14.7999 6.08121 14.7999 5.48121C14.7999 4.88122 15.2999 4.33122 15.9499 4.33122ZM10.4999 5.38121C13.5499 5.38121 16.0999 7.93119 16.0999 10.9312C16.0999 13.9811 13.5499 16.4811 10.5499 16.4811H10.4999C7.49993 16.4811 4.99993 13.9811 4.99993 10.9312C4.99993 7.93119 7.44993 5.38121 10.4999 5.38121ZM10.4999 7.2812C12.5499 7.2812 14.1999 8.93118 14.1999 10.9312C14.1999 12.9811 12.5499 14.6311 10.5499 14.6311H10.4999C8.49994 14.6311 6.84993 12.9811 6.84993 10.9312C6.84993 8.93118 8.49994 7.2812 10.4999 7.2812ZM5.84993 2.53124H15.1499C17.2499 2.53124 18.9499 4.23122 18.9499 6.3312V15.5811C18.9499 17.6811 17.2499 19.3811 15.1499 19.3811H5.84993C3.74993 19.3811 2.04993 17.6811 2.04993 15.5811V6.3312C2.04993 4.23122 3.74993 2.53124 5.84993 2.53124Z" fill="#FFD66B"/>
</svg>
