<svg width="18" height="17" viewBox="0 0 18 17" fill="none" xmlns="http://www.w3.org/2000/svg">
<path d="M15.7345 13.1712V15.4647C15.7354 15.6777 15.6917 15.8884 15.6062 16.0835C15.5207 16.2786 15.3954 16.4537 15.2382 16.5977C15.081 16.7416 14.8954 16.8512 14.6933 16.9194C14.4913 16.9876 14.2771 17.013 14.0647 16.9938C11.7076 16.7382 9.44346 15.9343 7.4542 14.6467C5.60344 13.4729 4.03433 11.9068 2.85828 10.0596C1.56375 8.0651 0.758135 5.79431 0.506706 3.43118C0.487564 3.21977 0.512738 3.00669 0.580624 2.80552C0.648509 2.60434 0.75762 2.41948 0.901009 2.2627C1.0444 2.10592 1.21892 1.98066 1.41347 1.89489C1.60802 1.80912 1.81833 1.76472 2.03102 1.76452H4.32898C4.70071 1.76087 5.0611 1.89226 5.34296 2.1342C5.62482 2.37613 5.80892 2.71211 5.86095 3.0795C5.95794 3.81349 6.13781 4.53418 6.39714 5.22781C6.5002 5.50145 6.5225 5.79884 6.46141 6.08474C6.40032 6.37065 6.25839 6.63308 6.05244 6.84095L5.07964 7.81189C6.17006 9.7259 7.75788 11.3107 9.67556 12.399L10.6484 11.4281C10.8566 11.2225 11.1196 11.0809 11.406 11.0199C11.6925 10.9589 11.9904 10.9812 12.2646 11.084C12.9595 11.3429 13.6816 11.5224 14.417 11.6192C14.7891 11.6716 15.1289 11.8587 15.3718 12.1448C15.6148 12.431 15.7438 12.7962 15.7345 13.1712Z" fill="#E2001A"/>
<path d="M10.411 4.05809C11.1592 4.20378 11.8468 4.56898 12.3858 5.10696C12.9248 5.64494 13.2907 6.33121 13.4367 7.07795M10.411 1C11.9654 1.17235 13.4149 1.8671 14.5215 2.97018C15.6281 4.07325 16.326 5.51909 16.5006 7.0703" stroke="#E2001A" stroke-width="2" stroke-linecap="round" stroke-linejoin="round"/>
</svg>
