<svg width="18" height="21" viewBox="0 0 18 21" fill="none" xmlns="http://www.w3.org/2000/svg">
<path fill-rule="evenodd" clip-rule="evenodd" d="M14.66 4.91303C13.54 4.35303 12.7 3.09303 12.56 1.69303C12.56 1.41303 12.42 1.13303 12.42 0.853027H9.05998V8.69303V14.293C9.05998 15.833 7.79998 17.093 6.25998 17.093C5.69998 17.093 5.27998 16.953 4.85998 16.813C4.01998 16.393 3.31998 15.413 3.31998 14.293C3.31998 12.753 4.57998 11.493 6.25998 11.493C6.53998 11.493 6.81998 11.493 7.09998 11.633V8.97303V8.27303C6.81998 8.27303 6.53998 8.13303 6.25998 8.13303C2.89998 8.13303 0.0999756 10.933 0.0999756 14.293C0.0999756 16.393 1.21998 18.213 2.75998 19.333C3.73998 20.033 4.99998 20.453 6.25998 20.453C9.61998 20.453 12.42 17.653 12.42 14.293V7.29303C13.68 8.41303 15.36 8.97303 17.04 8.83303V6.31303V5.47303C16.2 5.75303 15.36 5.47303 14.66 4.91303Z" fill="#FFD66B"/>
</svg>
