<svg width="21" height="15" viewBox="0 0 21 15" fill="none" xmlns="http://www.w3.org/2000/svg">
<path fill-rule="evenodd" clip-rule="evenodd" d="M4.48 0.932832C6.44 0.792832 8.68 0.652832 10.5 0.652832C12.32 0.652832 14.56 0.792832 16.52 0.932832C18.76 1.07283 20.02 1.49283 20.3 3.87283C20.44 4.99283 20.58 6.39283 20.58 7.79283C20.58 9.33283 20.44 10.7328 20.3 11.7128C20.02 14.0928 18.76 14.3728 16.52 14.6528C14.56 14.7928 12.32 14.9328 10.5 14.9328C8.68 14.9328 6.44 14.9328 4.48 14.6528C2.24 14.5128 0.979997 14.0928 0.699997 11.7128C0.559997 10.7328 0.559998 9.19283 0.559998 7.79283C0.559998 6.25283 0.699997 4.85283 0.699997 3.87283C0.979997 1.49283 2.24 1.07283 4.48 0.932832Z" fill="#FFD66B"/>
<path fill-rule="evenodd" clip-rule="evenodd" d="M8.53998 4.71289L13.72 7.79289L8.53998 10.8729V4.71289Z" fill="#005AAA"/>
</svg>
